<mxfile host="app.diagrams.net" agent="Mozilla/5.0 (Macintosh; Intel Mac OS X 10_15_7) AppleWebKit/537.36 (KHTML, like Gecko) Chrome/128.0.0.0 Safari/537.36" version="24.7.7">
  <diagram id="C5RBs43oDa-KdzZeNtuy" name="Page-1">
    <mxGraphModel dx="2411" dy="819" grid="1" gridSize="10" guides="1" tooltips="1" connect="1" arrows="1" fold="1" page="1" pageScale="1" pageWidth="1169" pageHeight="1654" math="0" shadow="0">
      <root>
        <mxCell id="WIyWlLk6GJQsqaUBKTNV-0" />
        <mxCell id="WIyWlLk6GJQsqaUBKTNV-1" parent="WIyWlLk6GJQsqaUBKTNV-0" />
        <mxCell id="CEUtAZPTvhwDoo76C2s1-5" value="" style="edgeStyle=orthogonalEdgeStyle;rounded=0;orthogonalLoop=1;jettySize=auto;html=1;" edge="1" parent="WIyWlLk6GJQsqaUBKTNV-1" source="WIyWlLk6GJQsqaUBKTNV-3" target="CEUtAZPTvhwDoo76C2s1-3">
          <mxGeometry relative="1" as="geometry" />
        </mxCell>
        <mxCell id="WIyWlLk6GJQsqaUBKTNV-3" value="&lt;font style=&quot;font-size: 10px;&quot;&gt;Press heart icon button to save an event&lt;/font&gt;" style="rounded=1;whiteSpace=wrap;html=1;fontSize=12;glass=0;strokeWidth=1;shadow=0;" parent="WIyWlLk6GJQsqaUBKTNV-1" vertex="1">
          <mxGeometry x="145" y="160" width="120" height="40" as="geometry" />
        </mxCell>
        <mxCell id="fHBhbnE0-1R5VEwMgtCM-0" value="&lt;span style=&quot;font-size: 10px;&quot;&gt;Firestore fields: &lt;span style=&quot;background-color: rgb(204, 255, 204);&quot;&gt;saved&lt;/span&gt;&lt;/span&gt;&lt;div&gt;&lt;span style=&quot;font-size: 10px;&quot;&gt;1. id,&lt;/span&gt;&lt;/div&gt;&lt;div&gt;&lt;span style=&quot;font-size: 10px;&quot;&gt;2. partyId&lt;/span&gt;&lt;/div&gt;" style="rounded=1;whiteSpace=wrap;html=1;fontSize=12;glass=0;strokeWidth=1;shadow=0;align=left;" parent="WIyWlLk6GJQsqaUBKTNV-1" vertex="1">
          <mxGeometry x="-30" y="410" width="110" height="70" as="geometry" />
        </mxCell>
        <mxCell id="Kd-CAkAfpJ6mBgL6IdJe-1" value="" style="edgeStyle=orthogonalEdgeStyle;rounded=0;orthogonalLoop=1;jettySize=auto;html=1;" parent="WIyWlLk6GJQsqaUBKTNV-1" source="Kd-CAkAfpJ6mBgL6IdJe-0" target="fHBhbnE0-1R5VEwMgtCM-0" edge="1">
          <mxGeometry relative="1" as="geometry" />
        </mxCell>
        <mxCell id="Kd-CAkAfpJ6mBgL6IdJe-0" value="&lt;span style=&quot;font-size: 10px;&quot;&gt;Invoke the &lt;span style=&quot;background-color: rgb(90, 224, 224);&quot;&gt;saveParty&lt;/span&gt; function to store the event in Firebase.&lt;/span&gt;" style="rounded=1;whiteSpace=wrap;html=1;fontSize=12;glass=0;strokeWidth=1;shadow=0;" parent="WIyWlLk6GJQsqaUBKTNV-1" vertex="1">
          <mxGeometry x="-40" y="275" width="130" height="50" as="geometry" />
        </mxCell>
        <mxCell id="Kd-CAkAfpJ6mBgL6IdJe-3" value="" style="edgeStyle=orthogonalEdgeStyle;rounded=0;orthogonalLoop=1;jettySize=auto;html=1;" parent="WIyWlLk6GJQsqaUBKTNV-1" source="Kd-CAkAfpJ6mBgL6IdJe-4" target="Kd-CAkAfpJ6mBgL6IdJe-7" edge="1">
          <mxGeometry relative="1" as="geometry" />
        </mxCell>
        <mxCell id="CEUtAZPTvhwDoo76C2s1-14" style="edgeStyle=orthogonalEdgeStyle;rounded=0;orthogonalLoop=1;jettySize=auto;html=1;entryX=0.5;entryY=0;entryDx=0;entryDy=0;" edge="1" parent="WIyWlLk6GJQsqaUBKTNV-1" source="Kd-CAkAfpJ6mBgL6IdJe-4" target="Kd-CAkAfpJ6mBgL6IdJe-5">
          <mxGeometry relative="1" as="geometry" />
        </mxCell>
        <mxCell id="Kd-CAkAfpJ6mBgL6IdJe-4" value="&lt;font style=&quot;font-size: 10px;&quot;&gt;Cache the &lt;span style=&quot;background-color: rgb(204, 255, 204);&quot;&gt;saved_events&lt;/span&gt;&lt;span style=&quot;background-color: rgb(255, 255, 255);&quot;&gt; from db&amp;nbsp;when app&amp;nbsp;&lt;/span&gt;&lt;/font&gt;&lt;span style=&quot;font-size: 10px;&quot;&gt;initializes&lt;/span&gt;" style="rounded=1;whiteSpace=wrap;html=1;fontSize=12;glass=0;strokeWidth=1;shadow=0;" parent="WIyWlLk6GJQsqaUBKTNV-1" vertex="1">
          <mxGeometry x="577.5" y="160" width="135" height="40" as="geometry" />
        </mxCell>
        <mxCell id="Kd-CAkAfpJ6mBgL6IdJe-5" value="&lt;span style=&quot;font-size: 10px;&quot;&gt;Firestore fields: &lt;span style=&quot;background-color: rgb(204, 255, 204);&quot;&gt;saved_events&lt;/span&gt;&lt;/span&gt;&lt;div&gt;&lt;span style=&quot;font-size: 10px;&quot;&gt;1. id,&lt;/span&gt;&lt;/div&gt;&lt;div&gt;&lt;span style=&quot;font-size: 10px;&quot;&gt;2. partyId&lt;/span&gt;&lt;/div&gt;" style="rounded=1;whiteSpace=wrap;html=1;fontSize=12;glass=0;strokeWidth=1;shadow=0;align=left;" parent="WIyWlLk6GJQsqaUBKTNV-1" vertex="1">
          <mxGeometry x="765" y="225" width="140" height="70" as="geometry" />
        </mxCell>
        <mxCell id="Kd-CAkAfpJ6mBgL6IdJe-6" value="" style="edgeStyle=orthogonalEdgeStyle;rounded=0;orthogonalLoop=1;jettySize=auto;html=1;" parent="WIyWlLk6GJQsqaUBKTNV-1" source="Kd-CAkAfpJ6mBgL6IdJe-7" target="Kd-CAkAfpJ6mBgL6IdJe-5" edge="1">
          <mxGeometry relative="1" as="geometry" />
        </mxCell>
        <mxCell id="Kd-CAkAfpJ6mBgL6IdJe-10" value="" style="edgeStyle=orthogonalEdgeStyle;rounded=0;orthogonalLoop=1;jettySize=auto;html=1;" parent="WIyWlLk6GJQsqaUBKTNV-1" source="Kd-CAkAfpJ6mBgL6IdJe-7" target="Kd-CAkAfpJ6mBgL6IdJe-8" edge="1">
          <mxGeometry relative="1" as="geometry" />
        </mxCell>
        <mxCell id="Kd-CAkAfpJ6mBgL6IdJe-7" value="&lt;span style=&quot;font-size: 10px;&quot;&gt;When the Party Info screen is opened, the screen&#39;s state will already contain &lt;span style=&quot;background-color: rgb(204, 255, 204);&quot;&gt;saved_events&lt;/span&gt;.&lt;/span&gt;" style="rounded=1;whiteSpace=wrap;html=1;fontSize=12;glass=0;strokeWidth=1;shadow=0;" parent="WIyWlLk6GJQsqaUBKTNV-1" vertex="1">
          <mxGeometry x="575" y="230" width="140" height="60" as="geometry" />
        </mxCell>
        <mxCell id="Kd-CAkAfpJ6mBgL6IdJe-12" value="" style="edgeStyle=orthogonalEdgeStyle;rounded=0;orthogonalLoop=1;jettySize=auto;html=1;" parent="WIyWlLk6GJQsqaUBKTNV-1" source="Kd-CAkAfpJ6mBgL6IdJe-8" target="Kd-CAkAfpJ6mBgL6IdJe-11" edge="1">
          <mxGeometry relative="1" as="geometry" />
        </mxCell>
        <mxCell id="Kd-CAkAfpJ6mBgL6IdJe-8" value="&lt;span style=&quot;font-size: 10px;&quot;&gt;If the Party Info screen ID is already in &lt;span style=&quot;background-color: rgb(204, 255, 204);&quot;&gt;saved_events&lt;/span&gt;, the heart icon should be red.&lt;/span&gt;" style="rounded=1;whiteSpace=wrap;html=1;fontSize=12;glass=0;strokeWidth=1;shadow=0;" parent="WIyWlLk6GJQsqaUBKTNV-1" vertex="1">
          <mxGeometry x="575" y="330" width="140" height="60" as="geometry" />
        </mxCell>
        <mxCell id="Kd-CAkAfpJ6mBgL6IdJe-14" value="" style="edgeStyle=orthogonalEdgeStyle;rounded=0;orthogonalLoop=1;jettySize=auto;html=1;" parent="WIyWlLk6GJQsqaUBKTNV-1" source="Kd-CAkAfpJ6mBgL6IdJe-11" target="Kd-CAkAfpJ6mBgL6IdJe-13" edge="1">
          <mxGeometry relative="1" as="geometry" />
        </mxCell>
        <mxCell id="Kd-CAkAfpJ6mBgL6IdJe-16" value="" style="edgeStyle=orthogonalEdgeStyle;rounded=0;orthogonalLoop=1;jettySize=auto;html=1;" parent="WIyWlLk6GJQsqaUBKTNV-1" source="Kd-CAkAfpJ6mBgL6IdJe-11" target="Kd-CAkAfpJ6mBgL6IdJe-15" edge="1">
          <mxGeometry relative="1" as="geometry" />
        </mxCell>
        <mxCell id="Kd-CAkAfpJ6mBgL6IdJe-11" value="&lt;font style=&quot;font-size: 10px;&quot;&gt;When the heart icon is pressed, the &lt;span style=&quot;background-color: rgb(204, 255, 204);&quot;&gt;Save Event Action&lt;/span&gt; will be triggered.&lt;/font&gt;" style="rounded=1;whiteSpace=wrap;html=1;fontSize=12;glass=0;strokeWidth=1;shadow=0;" parent="WIyWlLk6GJQsqaUBKTNV-1" vertex="1">
          <mxGeometry x="570" y="435" width="150" height="60" as="geometry" />
        </mxCell>
        <mxCell id="Kd-CAkAfpJ6mBgL6IdJe-13" value="&lt;span style=&quot;font-size: 10px;&quot;&gt;Update the&amp;nbsp;&lt;span style=&quot;background-color: rgb(204, 255, 204);&quot;&gt;saved_events&lt;/span&gt;&lt;span style=&quot;background-color: rgb(255, 255, 255);&quot;&gt; in database&lt;/span&gt;.&lt;/span&gt;" style="rounded=1;whiteSpace=wrap;html=1;fontSize=12;glass=0;strokeWidth=1;shadow=0;" parent="WIyWlLk6GJQsqaUBKTNV-1" vertex="1">
          <mxGeometry x="578.13" y="540" width="133.75" height="30" as="geometry" />
        </mxCell>
        <mxCell id="Kd-CAkAfpJ6mBgL6IdJe-15" value="&lt;span style=&quot;font-size: 10px;&quot;&gt;Also, update the local cached &lt;span style=&quot;background-color: rgb(204, 255, 204);&quot;&gt;saved_events&lt;/span&gt;&lt;span style=&quot;background-color: rgb(255, 255, 255);&quot;&gt; globally.&lt;/span&gt;&lt;/span&gt;" style="rounded=1;whiteSpace=wrap;html=1;fontSize=12;glass=0;strokeWidth=1;shadow=0;" parent="WIyWlLk6GJQsqaUBKTNV-1" vertex="1">
          <mxGeometry x="577.5" y="610" width="135" height="40" as="geometry" />
        </mxCell>
        <mxCell id="CEUtAZPTvhwDoo76C2s1-0" value="&lt;div style=&quot;text-align: center;&quot;&gt;&lt;b&gt;&lt;font style=&quot;font-size: 13px;&quot;&gt;Save event action&lt;/font&gt;&lt;/b&gt;&lt;br&gt;&lt;/div&gt;" style="text;whiteSpace=wrap;html=1;" vertex="1" parent="WIyWlLk6GJQsqaUBKTNV-1">
          <mxGeometry x="145" y="120" width="250" height="40" as="geometry" />
        </mxCell>
        <mxCell id="CEUtAZPTvhwDoo76C2s1-1" value="&lt;div style=&quot;&quot;&gt;&lt;span style=&quot;font-size: 13px;&quot;&gt;&lt;b&gt;Cache saved_events from db when&amp;nbsp; app initializes and work with only cached data&lt;/b&gt;&lt;/span&gt;&lt;/div&gt;" style="text;whiteSpace=wrap;html=1;align=left;" vertex="1" parent="WIyWlLk6GJQsqaUBKTNV-1">
          <mxGeometry x="520" y="110" width="297.5" height="40" as="geometry" />
        </mxCell>
        <mxCell id="CEUtAZPTvhwDoo76C2s1-7" value="" style="edgeStyle=orthogonalEdgeStyle;rounded=0;orthogonalLoop=1;jettySize=auto;html=1;" edge="1" parent="WIyWlLk6GJQsqaUBKTNV-1" source="CEUtAZPTvhwDoo76C2s1-3" target="Kd-CAkAfpJ6mBgL6IdJe-0">
          <mxGeometry relative="1" as="geometry" />
        </mxCell>
        <mxCell id="CEUtAZPTvhwDoo76C2s1-9" value="" style="edgeStyle=orthogonalEdgeStyle;rounded=0;orthogonalLoop=1;jettySize=auto;html=1;" edge="1" parent="WIyWlLk6GJQsqaUBKTNV-1" source="CEUtAZPTvhwDoo76C2s1-3" target="CEUtAZPTvhwDoo76C2s1-8">
          <mxGeometry relative="1" as="geometry" />
        </mxCell>
        <mxCell id="CEUtAZPTvhwDoo76C2s1-3" value="&lt;span style=&quot;font-size: 10px;&quot;&gt;Check if the event ID is already saved in &lt;span style=&quot;background-color: rgb(204, 255, 204);&quot;&gt;saved_events&lt;/span&gt;.&lt;/span&gt;" style="rhombus;whiteSpace=wrap;html=1;" vertex="1" parent="WIyWlLk6GJQsqaUBKTNV-1">
          <mxGeometry x="135" y="240" width="140" height="120" as="geometry" />
        </mxCell>
        <mxCell id="CEUtAZPTvhwDoo76C2s1-8" value="&lt;span style=&quot;font-size: 10px;&quot;&gt;Invoke the &lt;span style=&quot;background-color: rgb(90, 224, 224);&quot;&gt;removeParty&lt;/span&gt; function to remove the event ID from db.&lt;/span&gt;" style="rounded=1;whiteSpace=wrap;html=1;fontSize=12;glass=0;strokeWidth=1;shadow=0;" vertex="1" parent="WIyWlLk6GJQsqaUBKTNV-1">
          <mxGeometry x="330" y="275" width="130" height="50" as="geometry" />
        </mxCell>
      </root>
    </mxGraphModel>
  </diagram>
</mxfile>
